<svg xmlns="http://www.w3.org/2000/svg" viewBox="0 0 172 172" role="img" aria-hidden="true">
  <defs/>
  <path fill="#F86464" d="M120.81151 0c.519205 0 1.015465.20612642 1.381942.5726038l49.233915 49.2339194c.366477.3664774.572633.8627757.572633 1.3819423v69.6230395c0 .519206-.206126 1.015465-.572604 1.381942l-49.233944 49.233949c-.366477.366478-.862785.572604-1.381942.572604H51.1865745c-.5192054 0-1.0154645-.206126-1.3819418-.572604L.57260364 122.193487C.20612636 121.827009 0 121.330701 0 120.811544V51.1884655c0-.5192057.20612636-1.0154649.57260364-1.3819423L49.8046327.5726038C50.17111.20612642 50.6674082 0 51.1865745 0zM84.7020645 33.5173857c-4.5714081 0-8.2915336 3.7220419-8.2915336 8.2953669v1.1943839c-1.2752627-.8002302-2.7705291-1.2821821-4.3843582-1.2821821-4.5714082 0-8.2915336 3.718211-8.2915336 8.2915359v21.9941154c-1.6152755-1.2096685-3.5979664-1.952396-5.7663-1.952396-5.3368473 0-9.6773064 4.3404994-9.6773064 9.6773091v22.3398352c0 20.755598 16.8865691 37.640286 37.6421609 37.640286 6.5068773 0 12.9393255-1.698774 18.6025424-4.916886 8.518652-4.844391 13.809685-13.941415 13.809685-23.737062v.00002-54.5746091c0-4.573325-3.720165-8.291536-8.291573-8.291536-1.612852 0-3.107649.4819519-4.382443 1.2817131v-2.7437917c0-4.573325-3.720125-8.291536-8.2934486-8.291536-1.7169119 0-3.3133064.5251376-4.63798 1.4222352-.8820473-3.6320938-4.1388282-6.3468018-8.0379119-6.3468018zm-.000039 3.9090822c2.418359 0 4.3843581 1.9659997 4.3843581 4.3862749 0 .6200993.3063555 1.1483349.7558619 1.5062122-.4752673 1.0440794-.7558619 2.1943297-.7558619 3.4144746v38.0296799c0 1.0803558.87419 1.954546 1.9545455 1.954546 1.0803554 0 1.9545454-.8741902 1.9545454-1.954546V46.7334296c0-2.4164443 1.9659991-4.3824439 4.3824428-4.3824439 2.4183591 0 4.3843577 1.9659996 4.3843577 4.3824439v42.3739028c0 1.0803557.87419 1.954546 1.954546 1.954546 1.080355 0 1.954545-.8741903 1.954545-1.954546V56.4870051c0-2.4164443 1.965999-4.3824439 4.382443-4.3824439 2.416444 0 4.382521 1.9659996 4.382521 4.3824439v54.5746769c0 8.394629-4.533255 16.186114-11.832271 20.339524-5.075329 2.882174-10.8397135 4.405351-16.6709045 4.405351-18.6006272 0-33.73307-15.132437-33.73307-33.731193V79.7355188c0-3.1799682 2.5882482-5.7682171 5.7682155-5.7682171s5.7663 2.5882489 5.7663 5.7682171v15.1935461c0 1.0803558.87419 1.954546 1.9545455 1.954546 1.0803554 0 1.9545454-.8741902 1.9545454-1.954546V50.0165197c0-2.4164444 1.9659991-4.382444 4.3824427-4.382444 2.4183591 0 4.3843582 1.9659996 4.3843582 4.382444v39.0909202c0 1.0803557.87419 1.954546 1.9545455 1.954546 1.0803554 0 1.9545454-.8741903 1.9545454-1.954546V41.8127428c0-2.4202655 1.9659991-4.3862749 4.3824428-4.3862749z"/>
</svg>
