<?xml version="1.0" encoding="UTF-8"?>
<svg width="24px" height="24px" viewBox="0 0 24 24" version="1.1" xmlns="http://www.w3.org/2000/svg" xmlns:xlink="http://www.w3.org/1999/xlink">
    <!-- Generator: Sketch 61 (89581) - https://sketch.com -->
    <title>icons/major/warning</title>
    <desc>Created with Sketch.</desc>
    <g id="icons/major/warning" stroke="none" stroke-width="1" fill="none" fill-rule="evenodd">
        <path d="M9.41419735,3.45124791 L1.162614,17.4789396 C0.891419916,17.9399696 0.748416643,18.4651217 0.748416643,19 C0.748416643,20.6568542 2.09156239,22 3.74841664,22 L20.2515834,22 C20.7864617,22 21.3116138,21.8569967 21.7726437,21.5858026 C23.2007431,20.7457442 23.6774445,18.907039 22.837386,17.4789396 L14.5858026,3.45124791 C14.3271785,3.01158691 13.9607214,2.64512976 13.5210604,2.38650565 C12.092961,1.5464472 10.2542558,2.02314855 9.41419735,3.45124791 Z M12.0216474,3.98663318 C12.4062919,3.98663318 12.6817024,4.19326888 12.8619342,4.46528817 L21.0047095,18.4929799 C21.284729,18.969013 21.2346366,19.5819147 20.7586035,19.8619342 C20.6049268,19.9523322 20.4298761,20 20.2515834,20 L3.74841664,20 C3.19613189,20 2.86714797,19.5522847 2.86714797,19 C2.86714797,18.8217072 2.90960197,18.6466565 3,18.4929799 L11.1380658,4.46528817 C11.3098103,4.19326888 11.6319307,3.98663318 12.0216474,3.98663318 Z" id="Triangle" fill="#F5A623"></path>
        <rect id="Rectangle" fill="#F5A623" x="11" y="17" width="2" height="2"></rect>
        <rect id="Rectangle" fill="#F5A623" x="11" y="8" width="2" height="8"></rect>
    </g>
</svg>